<?xml version="1.0" encoding="utf-8"?>
<!-- Generator: Adobe Illustrator 12.0.0, SVG Export Plug-In . SVG Version: 6.00 Build 51448)  -->
<!DOCTYPE svg PUBLIC "-//W3C//DTD SVG 1.1//EN" "http://www.w3.org/Graphics/SVG/1.1/DTD/svg11.dtd" [
	<!ENTITY ns_svg "http://www.w3.org/2000/svg">
	<!ENTITY ns_xlink "http://www.w3.org/1999/xlink">
]>
<svg  version="1.1" id="Ebene_1" xmlns="&ns_svg;" xmlns:xlink="&ns_xlink;" width="286.992" height="216.197"
	 viewBox="0 0 286.992 216.197" overflow="visible" enable-background="new 0 0 286.992 216.197" xml:space="preserve">
<g>
	<line fill="none" stroke="#000000" stroke-width="11.218" x1="5.609" y1="54.912" x2="5.609" y2="148.966"/>
	<line fill="none" stroke="#000000" stroke-width="10.2606" x1="69.245" y1="74.363" x2="69.245" y2="168.418"/>
	<line fill="none" stroke="#000000" stroke-width="10.2606" x1="130.125" y1="75.432" x2="130.125" y2="169.488"/>
	<line fill="none" stroke="#000000" stroke-width="10.2606" x1="191.047" y1="77.569" x2="191.047" y2="171.627"/>
	<line fill="none" stroke="#000000" stroke-width="12.2113" x1="250.602" y1="59.365" x2="252.017" y2="149.174"/>
	<line fill="none" stroke="#000000" stroke-width="11.592" x1="167.107" y1="209.987" x2="261.164" y2="209.987"/>
	<line fill="none" stroke="#000000" stroke-width="11.0685" x1="251.914" y1="61.759" x2="277.696" y2="150.224"/>
	<g>
		<g>
			<path fill="none" d="M6.142,147.898c0,9.619,9.621,20.308,18.171,25.65c13.894,7.483,22.445-1.067,36.339-3.206
				c9.619-2.137,4.276-1.069,14.964,2.139c6.413,1.067,11.758,3.206,19.238,4.275c13.896,2.137,19.238-4.275,29.928-6.414
				c10.688-1.069,20.307,4.275,34.203,6.414c13.895,2.137,22.443-6.414,35.27-6.414c17.102,0,63.06,18.17,57.716-23.514"/>
			<path d="M0.11,148.962c0.551,12.384,10.845,23.208,20.689,29.604c11.941,7.758,23.98,2.18,36.126-1.184
				c2.832-0.784,5.776-1.251,8.655-1.846c2.678-0.553-0.498-0.68,1.221,0.14c5.523,2.633,11.57,3.568,17.457,5.087
				c6.52,1.682,12.908,2.774,19.651,2.339c5.575-0.36,10.873-2.854,15.98-4.907c11.426-4.592,23.645,1.669,34.985,4.037
				c6.243,1.303,12.375,1.184,18.55-0.394c5.9-1.507,11.41-4.1,17.443-5.128c6.271-1.069,13.195,0.86,19.37,1.852
				c7.441,1.195,14.809,2.011,22.354,1.687c6.935-0.297,14.404-2.519,19.222-7.758c6.744-7.333,7.293-17.267,6.187-26.725
				c-0.919-7.854-12.976-5.683-12.063,2.127c0.712,6.088,0.545,14.388-4.552,17.561c-5.016,3.121-11.785,2.938-17.837,2.479
				c-7.029-0.534-13.96-1.932-20.925-2.961c-9.255-1.368-17.433,0.106-26.266,3.166c-5.588,1.936-10.851,3.269-16.797,2.521
				c-6.901-0.867-13.542-3.319-20.279-4.945c-5.464-1.318-11.356-2.333-16.931-1.1c-5.349,1.185-10.134,3.912-15.347,5.462
				c-6.126,1.821-12.426,0.703-18.497-0.802c-5.854-1.451-11.992-2.466-17.457-5.087c-3.276-1.571-6.509-0.964-9.917-0.219
				c-6.514,1.423-12.658,3.507-19.044,5.373c-7.332,2.143-13.083,0.487-18.973-4.215c-5.571-4.447-10.621-10.964-10.947-18.291
				c-0.149-3.344-4.13-5.49-7.095-4.968C1.468,142.504-0.038,145.627,0.11,148.962L0.11,148.962z"/>
		</g>
	</g>
	<g>
		<g>
			<path fill="none" d="M157.873,177.825c0,12.824-2.139,35.271,17.102,32.065"/>
			<path d="M151.774,177.247c-0.029,8.84-0.751,18.122,2.309,26.586c3.497,9.674,12.134,13.472,21.955,12.089
				c7.83-1.103,5.677-13.161-2.127-12.063c-5.877,0.827-8.085-1.92-9.21-7.394c-1.216-5.918-0.75-12.067-0.729-18.063
				C163.998,170.558,151.8,169.357,151.774,177.247L151.774,177.247z"/>
		</g>
	</g>
	<g>
		<g>
			<path fill="none" d="M253.041,145.761c12.826,7.481,26.719,8.552,27.786,27.788c1.071,11.758-8.548,30.997-21.374,36.342"/>
			<path d="M249.528,150.777c9.781,5.563,22.868,8.049,24.974,20.793c2.014,12.192-6.496,27.75-17.678,32.787
				c-7.198,3.242-1.948,14.313,5.258,11.066c14.846-6.688,25.883-25.702,24.842-41.913c-0.569-8.874-3.58-16.2-10.388-22.02
				c-5.742-4.909-13.493-7.056-19.982-10.747C249.743,136.871,242.655,146.869,249.528,150.777L249.528,150.777z"/>
		</g>
	</g>
	<g>
		<g>
			<path fill="none" d="M276.406,148.021c0.563,6.388,2.026,11.623,3.589,17.926"/>
			<path d="M270.566,149.05c0.605,6.103,2.108,11.99,3.589,17.925c1.841,7.378,13.532,5.368,11.68-2.059
				c-1.48-5.936-2.984-11.823-3.589-17.926C281.491,139.374,269.817,141.489,270.566,149.05L270.566,149.05z"/>
		</g>
	</g>
	<g>
		<g>
			<path fill="none" d="M191.047,169.273c9.618,12.826,20.309,19.239,22.446,36.34"/>
			<path d="M186.376,173.235c8.297,10.855,19.034,19.173,21.086,33.441c1.125,7.826,13.185,5.676,12.063-2.127
				c-2.412-16.776-14.067-26.496-23.807-39.238C190.92,159.034,181.587,166.971,186.376,173.235L186.376,173.235z"/>
		</g>
	</g>
	<g>
		<g>
			<path fill="none" d="M7.211,130.797c16.033-5.343,42.753-12.827,57.717,0"/>
			<path d="M9.84,136.33c15.397-5.099,37.465-11.992,51.576-0.517c6.139,4.992,13.122-5.076,7.025-10.033
				c-17.898-14.556-44.27-7.004-63.859-0.517C-2.894,127.739,2.43,138.784,9.84,136.33L9.84,136.33z"/>
		</g>
	</g>
	<g>
		<g>
			<path fill="none" d="M65.698,132.409c16.033-5.343,42.752-12.826,57.716,0"/>
			<path d="M68.327,137.942c15.396-5.099,37.463-11.991,51.574-0.517c6.139,4.992,13.122-5.076,7.025-10.033
				c-17.898-14.555-44.269-7.004-63.857-0.517C55.593,129.352,60.917,140.396,68.327,137.942L68.327,137.942z"/>
		</g>
	</g>
	<g>
		<g>
			<path fill="none" d="M130.37,131.106c16.032-5.345,42.754-12.827,57.718,0"/>
			<path d="M132.999,136.639c15.396-5.101,37.465-11.992,51.576-0.517c6.139,4.992,13.121-5.076,7.025-10.033
				c-17.897-14.556-44.271-7.005-63.859-0.517C120.265,128.049,125.589,139.094,132.999,136.639L132.999,136.639z"/>
		</g>
	</g>
	<g>
		<g>
			<path fill="none" d="M192.569,130.133c16.031-5.345,42.75-12.826,57.716,0"/>
			<path d="M195.198,135.666c15.396-5.101,37.463-11.991,51.574-0.517c6.139,4.992,13.122-5.076,7.025-10.033
				c-17.898-14.554-44.269-7.006-63.857-0.517C182.464,127.076,187.789,138.121,195.198,135.666L195.198,135.666z"/>
		</g>
	</g>
	<g>
		<g>
			<path fill="none" d="M6.142,55.981c2.139-28.86,24.584-41.686,50.235-42.754c12.826-1.069,23.514-7.482,37.408-7.482
				c13.896,0,24.584,10.688,38.478,9.619c12.826-1.068,19.238-11.756,35.271-8.55c12.823,3.206,23.514,9.619,37.409,10.688
				c12.826,0,21.378-3.207,30.996,5.344c10.688,8.55,11.755,23.514,14.963,36.339"/>
			<path d="M12.24,56.559c0.928-10.666,4.914-20.043,13.235-26.974c7.798-6.495,18.127-9.083,28.012-10.065
				c6.321-0.628,12.212-1.519,18.347-3.266c7.001-1.994,14.026-4.265,21.372-4.41c12.387-0.245,23.039,8.825,35.44,9.672
				c11.271,0.771,19.343-6.822,29.796-8.895c6.221-1.233,12.488,1.448,18.231,3.515c6.851,2.465,13.578,4.897,20.704,6.467
				c11.106,2.448,24.16-3.029,33.851,4.251c9.741,7.318,10.77,21.049,13.306,32.013c0.112,0.46,0.224,0.921,0.336,1.382
				c1.856,7.636,13.931,5.556,12.063-2.127c-2.874-11.819-4.418-23.836-11.45-34.092c-6.982-10.183-18.269-13.668-30.004-13.073
				c-6.441,0.326-12.386,0.594-18.726-0.975c-7.027-1.739-13.727-4.675-20.569-6.994c-6.162-2.088-12.064-3.23-18.572-2.62
				c-5.382,0.504-10.491,3.047-15.276,5.377c-4.573,2.227-8.849,3.824-14.017,3.471c-6.253-0.427-12.232-3.682-17.963-5.958
				C97.068-2.022,84.651-0.166,71.269,3.737c-6.161,1.797-12.182,3.188-18.598,3.612c-5.545,0.365-11.024,1.446-16.321,3.109
				c-10.124,3.178-18.858,8.639-25.728,16.765c-6.603,7.812-9.707,18.153-10.58,28.18C-0.643,63.283,11.556,64.421,12.24,56.559
				L12.24,56.559z"/>
		</g>
	</g>
	<g>
		<g>
			<path fill="none" d="M68.955,73.492"/>
			<path d="M68.955,78.851c6.911,0,6.911-10.717,0-10.717S62.043,78.851,68.955,78.851L68.955,78.851z"/>
		</g>
	</g>
	<g>
		<g>
			<path fill="none" d="M130.125,76.014"/>
			<path d="M130.125,81.372c6.911,0,6.911-10.717,0-10.717S123.214,81.372,130.125,81.372L130.125,81.372z"/>
		</g>
	</g>
	<g>
		<g>
			<path fill="none" d="M190.9,79.053"/>
			<path d="M190.9,84.412c6.911,0,6.911-10.717,0-10.717S183.989,84.412,190.9,84.412L190.9,84.412z"/>
		</g>
	</g>
</g>
</svg>
