
<svg xmlns="http://www.w3.org/2000/svg" width="417.515" height="464.398" overflow="visible"><path fill="none" stroke="#000" stroke-width="8" d="M58.603 74.097l49.251 92.472M90.875 62.915l29.023 101.781"/><path fill="none" d="M127.625 394.383c-15.924-4.566-31.848-21.313-44.311-32.729-16.617-15.223-29.771-28.922-40.849-49.473C25.847 282.499 10.615 249.008 3 215.519c9.001-4.567 24.925 6.089 31.156 12.939 9 9.894 10.385 24.356 18.001 35.772 13.155 22.072 32.541 38.818 55.389 43.385-15.924-4.566-35.31-29.685-42.234-45.668-6.231-12.939-6.923-21.311 9.693-19.027 10.385 1.521 12.462 7.61 20.078 14.461 31.849 30.445 77.545 15.982 99.7 62.412 22.848 47.189 7.616 97.424-12.462 141.568"/><path d="M128.661 391.583c-16.741-5.161-29.522-19.29-41.994-30.868-12.479-11.586-24.47-23.42-34.117-37.537-10.857-15.888-19.328-33.994-27.177-51.513C17.194 253.413 10.45 234.5 5.938 215l-1.658 3.215c9.492-4.164 22.824 6.658 28.604 13.336 4.153 4.797 6.411 11.116 8.651 16.956 2.476 6.453 5.175 12.459 8.755 18.377 12.779 21.125 32.387 38.501 56.973 43.703 3.331.705 4.509-4.775 1.318-5.771-10.766-3.358-19.158-12.594-26.083-21.062-7.07-8.645-12.944-18.361-16.96-28.795-1.008-2.619-2.727-7.309.574-8.876 4.974-2.364 12.899.308 16.915 3.349 4.187 3.171 7.412 7.784 11.324 11.312 4.128 3.724 8.59 6.921 13.409 9.689 17.157 9.856 37.17 12.501 54.945 20.895 24.044 11.354 35.311 36.633 39.242 61.761 5.773 36.901-7.43 74.115-22.426 107.237-1.592 3.518 4.022 5.555 5.599 2.072 11.967-26.435 21.969-54.241 23.828-83.426 1.679-26.356-4.468-56.027-21.86-76.619-13.028-15.423-32.467-21.003-50.985-26.797-9.752-3.053-19.381-6.521-28.112-11.915-4.703-2.905-8.931-6.459-12.868-10.324-3.82-3.75-6.955-8.063-11.68-10.761-5.673-3.237-18.675-5.665-23.353.737-4.74 6.487.61 15.863 3.455 21.979 4.541 9.762 11.108 18.776 18.201 26.82 6.681 7.576 14.924 15.253 24.764 18.323l1.318-5.771c-26.619-5.633-48.498-28.307-58.638-52.876-4.747-11.502-8.354-22.208-18.287-30.326-7.524-6.149-19.339-12.938-29.184-8.619-1.163.511-1.948 1.959-1.658 3.215 4.635 20.033 11.604 39.404 19.919 58.19 8.011 18.099 17.016 36.326 28.017 52.812 10.043 15.051 23.181 27.315 36.319 39.588 12.514 11.689 25.457 25.37 42.272 30.556 3.671 1.13 5.751-4.466 2.073-5.601z"/><path fill="none" d="M289.97 394.465c15.926-4.566 31.85-21.311 44.313-32.727 16.615-15.225 29.771-28.924 40.85-49.474 16.617-29.684 31.848-63.173 39.463-96.663-9-4.566-24.924 6.09-31.156 12.939-9 9.895-10.385 24.355-18 35.772-13.156 22.073-32.541 38.817-55.389 43.385 15.924-4.567 35.309-29.685 42.232-45.668 6.232-12.938 6.924-21.312-9.691-19.028-10.387 1.522-12.463 7.611-20.08 14.461-31.848 30.445-77.545 15.984-99.699 62.412-22.849 47.189-7.616 97.424 12.463 141.568"/><path d="M290.488 397.405c16.906-5.213 29.868-18.551 42.446-30.348 12.949-12.146 25.695-24.203 35.922-38.821 11.274-16.116 20.003-34.609 28.104-52.477 8.622-19.017 15.725-38.766 20.434-59.121.385-1.661-.129-3.119-1.763-3.836-9.576-4.199-20.651 2.522-28.149 8.105-10.078 7.503-14.193 18.413-18.6 29.735-9.828 25.259-32.304 48.393-59.351 54.116l1.037 5.879c9.775-3.051 17.711-10.135 24.47-17.601 7.597-8.392 14.167-17.731 19.114-27.928 3.028-6.24 7.973-15.398 3.185-21.953-4.872-6.67-18.964-3.396-24.467.258-4.324 2.872-7.458 7.093-11.132 10.698a73.194 73.194 0 01-13.826 10.646c-8.738 5.205-18.504 8.441-28.165 11.445-18.838 5.856-37.096 11.874-50.252 27.448-17.119 20.268-22.138 49.943-20.815 75.638 1.495 29.066 12.013 57.182 23.898 83.435 1.587 3.504 6.981.946 5.393-2.563-12.332-27.239-22.788-56.126-23.584-86.332-.696-26.453 6.995-57.625 28.412-74.938 15.498-12.528 36.427-15.384 54.536-22.444 9.563-3.729 18.492-8.905 26.127-15.791 7.953-7.172 15.594-18.916 28.267-14.389 7.11 2.539-8.596 26.462-10.734 29.63-7.451 11.037-18.188 24.718-31.463 28.86-3.554 1.109-2.83 6.697 1.037 5.879 24.439-5.173 43.558-22.494 56.484-43.24 6.856-11.002 9.349-24.266 16.883-34.784 5.368-7.495 19.969-18.446 29.623-14.212l-1.763-3.836c-4.438 19.176-11.049 37.712-18.925 55.73-7.757 17.747-16.507 35.585-27.091 51.832-9.465 14.527-21.817 26.645-34.506 38.325-12.436 11.448-25.171 25.939-41.823 31.072-3.627 1.123-2.635 7.015 1.037 5.883z"/><path fill="none" stroke="#000" stroke-width="6" d="M29.383 163.04s.339.59 1.004 1.689c13.987 23.103 172.157 271.285 355.562-1.689M29.383 165.04h356.566"/><g><path d="M219.194 100.448c-17.148 29.299-1.405 43.949-3.754 43.949-.838 0-19.771-14.65-2.621-43.949 17.148-29.299 1.404-43.948 3.753-43.948.838 0 19.772 14.648 2.622 43.948z"/><path fill="none" stroke="#000" d="M219.194 100.448c-17.148 29.299-1.405 43.949-3.754 43.949-.838 0-19.771-14.65-2.621-43.949 17.148-29.299 1.404-43.948 3.753-43.948.838 0 19.772 14.648 2.622 43.948z"/></g><g><path d="M256.194 70.447c-17.149 46.633-1.404 69.95-3.754 69.95-.838 0-19.771-23.316-2.621-69.95C266.968 23.816 251.224.5 253.572.5c.839 0 19.771 23.316 2.622 69.947z"/><path fill="none" stroke="#000" d="M256.194 70.447c-17.149 46.633-1.404 69.95-3.754 69.95-.838 0-19.771-23.316-2.621-69.95C266.968 23.816 251.224.5 253.572.5c.839 0 19.771 23.316 2.622 69.947z"/></g></svg>